<svg width="60" height="60" viewBox="0 0 60 60" fill="none" xmlns="http://www.w3.org/2000/svg">
<path d="M9.9419 38.9573L8.22224 49.3499C7.93276 51.0117 8.10612 52.7211 8.72333 54.291C9.34054 55.8609 10.3778 57.2307 11.7215 58.2504C13.2033 59.3844 15.0171 59.9992 16.883 60C18.3127 59.9948 19.7191 59.6368 20.9772 58.9577L29.9979 54.0464L38.9961 58.9527C40.2575 59.6352 41.6687 59.9933 43.1028 59.995C44.969 59.9955 46.7832 59.3806 48.2643 58.2454C49.608 57.2257 50.6453 55.8559 51.2625 54.286C51.8797 52.7161 52.0531 51.0067 51.7636 49.3449L50.0439 38.9523L57.3375 31.584C58.5235 30.3792 59.3572 28.8729 59.7485 27.2283C60.1397 25.5836 60.0735 23.8633 59.5571 22.2536C59.0818 20.6538 58.1622 19.2218 56.9051 18.1241C55.648 17.0263 54.1052 16.308 52.456 16.0525L42.3755 14.5328L37.8764 5.07998C37.1913 3.56676 36.0848 2.28291 34.6892 1.38202C33.2936 0.481124 31.6681 0.00132103 30.0069 2.72395e-06C28.3458 -0.00131558 26.7195 0.475906 25.3225 1.37458C23.9255 2.27326 22.8169 3.55535 22.1295 5.06748L17.6104 14.5303L7.52987 16.05C5.88192 16.3061 4.34068 17.0253 3.08569 18.1236C1.8307 19.2219 0.913616 20.6542 0.441279 22.2536C-0.0736161 23.8645 -0.139263 25.5853 0.25141 27.2308C0.642082 28.8762 1.47427 30.3839 2.65834 31.5915L9.9419 38.9573ZM5.61525 24.0032C5.7977 23.3988 6.14677 22.858 6.62246 22.4429C7.09814 22.0278 7.68118 21.7552 8.30472 21.6562L19.8024 19.9241C20.2435 19.8524 20.6604 19.6742 21.0171 19.4051C21.3738 19.1359 21.6595 18.7839 21.8495 18.3795L26.9985 7.57691C27.261 7.00358 27.6826 6.51769 28.2132 6.17702C28.7438 5.83636 29.3611 5.65526 29.9917 5.65526C30.6222 5.65526 31.2395 5.83636 31.7701 6.17702C32.3008 6.51769 32.7224 7.00358 32.9848 7.57691L38.1213 18.372C38.3113 18.7764 38.597 19.1284 38.9537 19.3976C39.3104 19.6667 39.7273 19.8449 40.1684 19.9166L51.6661 21.6487C52.2922 21.7461 52.8776 22.0197 53.3538 22.4375C53.8301 22.8554 54.1776 23.4001 54.3556 24.0082C54.5472 24.6196 54.5697 25.2716 54.4205 25.8947C54.2713 26.5179 53.956 27.089 53.5083 27.5474L45.1974 35.9455C44.8798 36.2715 44.6431 36.6674 44.5064 37.1015C44.3696 37.5356 44.3366 37.9957 44.4101 38.4449L46.3722 50.3072C46.4802 50.9381 46.4131 51.5864 46.1782 52.1818C45.9433 52.7772 45.5496 53.2967 45.0399 53.6839C44.5389 54.0554 43.9428 54.2772 43.3208 54.3236C42.6988 54.3701 42.0763 54.2393 41.5256 53.9464L31.2477 48.3476C30.8578 48.1335 30.4202 48.0212 29.9754 48.0212C29.5306 48.0212 29.093 48.1335 28.7032 48.3476L18.4152 53.9464C17.8653 54.2419 17.2424 54.3743 16.6198 54.3278C15.9972 54.2813 15.4008 54.0579 14.9009 53.6839C14.3956 53.2935 14.006 52.773 13.7735 52.1783C13.5411 51.5835 13.4746 50.9368 13.5812 50.3072L15.5433 38.4449C15.6195 37.9957 15.5879 37.5348 15.451 37.1002C15.3141 36.6657 15.0759 36.2699 14.7559 35.9455L6.44509 27.5474C6.00624 27.0824 5.69829 26.5096 5.55254 25.8871C5.40679 25.2646 5.42843 24.6146 5.61525 24.0032Z" fill="#C9C9C9"/>
</svg>
