<svg width="40" height="40" viewBox="0 0 50 50" fill="none" xmlns="http://www.w3.org/2000/svg">
<path d="M25 39.4043C26.3484 39.4043 27.4414 38.3112 27.4414 36.9629C27.4414 35.6145 26.3484 34.5215 25 34.5215C23.6516 34.5215 22.5586 35.6145 22.5586 36.9629C22.5586 38.3112 23.6516 39.4043 25 39.4043Z" fill="#00D2FF"/>
<path d="M25 0C11.1832 0 0 11.1813 0 25C0 38.8168 11.1813 50 25 50C38.8168 50 50 38.8187 50 25C50 11.1832 38.8187 0 25 0ZM25 46.0938C13.3421 46.0938 3.90625 36.6595 3.90625 25C3.90625 13.3421 13.3405 3.90625 25 3.90625C36.6579 3.90625 46.0938 13.3405 46.0938 25C46.0938 36.6579 36.6595 46.0938 25 46.0938Z" fill="#00D2FF"/>
<path d="M25 12.5488C20.6922 12.5488 17.1875 16.0535 17.1875 20.3613C17.1875 21.44 18.0619 22.3145 19.1406 22.3145C20.2193 22.3145 21.0938 21.44 21.0938 20.3613C21.0938 18.2074 22.8461 16.4551 25 16.4551C27.1539 16.4551 28.9062 18.2074 28.9062 20.3613C28.9062 22.5152 27.1539 24.2676 25 24.2676C23.9213 24.2676 23.0469 25.142 23.0469 26.2207V31.1035C23.0469 32.1822 23.9213 33.0566 25 33.0566C26.0787 33.0566 26.9531 32.1822 26.9531 31.1035V27.9267C30.3189 27.0572 32.8125 23.995 32.8125 20.3613C32.8125 16.0535 29.3078 12.5488 25 12.5488Z" fill="#00D2FF"/>
</svg>
