<svg width="37" height="36" viewBox="0 0 37 36" fill="none" xmlns="http://www.w3.org/2000/svg">
<circle cx="18.4787" cy="17.5538" r="17.0538" fill="url(#paint0_linear_2_3818)" fill-opacity="0.05" stroke="url(#paint1_linear_2_3818)"/>
<path d="M18.015 15.089C16.4033 15.089 15.0881 16.4043 15.0881 18.0159C15.0881 19.6276 16.4033 20.9428 18.015 20.9428C19.6266 20.9428 20.9418 19.6276 20.9418 18.0159C20.9418 16.4043 19.6266 15.089 18.015 15.089ZM26.7934 18.0159C26.7934 16.8039 26.8044 15.6028 26.7363 14.393C26.6683 12.9878 26.3477 11.7406 25.3201 10.713C24.2903 9.6832 23.0453 9.36482 21.6401 9.29676C20.4281 9.22869 19.227 9.23967 18.0172 9.23967C16.8051 9.23967 15.6041 9.22869 14.3942 9.29676C12.989 9.36482 11.7418 9.6854 10.7142 10.713C9.68442 11.7428 9.36604 12.9878 9.29798 14.393C9.22991 15.605 9.24089 16.8061 9.24089 18.0159C9.24089 19.2258 9.22991 20.429 9.29798 21.6389C9.36604 23.0441 9.68662 24.2913 10.7142 25.3189C11.744 26.3487 12.989 26.6671 14.3942 26.7351C15.6063 26.8032 16.8073 26.7922 18.0172 26.7922C19.2292 26.7922 20.4302 26.8032 21.6401 26.7351C23.0453 26.6671 24.2925 26.3465 25.3201 25.3189C26.3499 24.2891 26.6683 23.0441 26.7363 21.6389C26.8066 20.429 26.7934 19.228 26.7934 18.0159ZM18.015 22.5193C15.5228 22.5193 13.5116 20.5081 13.5116 18.0159C13.5116 15.5238 15.5228 13.5125 18.015 13.5125C20.5071 13.5125 22.5184 15.5238 22.5184 18.0159C22.5184 20.5081 20.5071 22.5193 18.015 22.5193ZM22.7028 14.3798C22.1209 14.3798 21.6511 13.91 21.6511 13.3281C21.6511 12.7462 22.1209 12.2763 22.7028 12.2763C23.2847 12.2763 23.7546 12.7462 23.7546 13.3281C23.7547 13.4663 23.7276 13.6031 23.6749 13.7308C23.6221 13.8585 23.5446 13.9745 23.4469 14.0722C23.3492 14.1699 23.2332 14.2473 23.1055 14.3001C22.9778 14.3529 22.841 14.38 22.7028 14.3798Z" fill="white"/>
<defs>
<linearGradient id="paint0_linear_2_3818" x1="18.4787" y1="0" x2="18.4787" y2="35.1077" gradientUnits="userSpaceOnUse">
<stop stop-color="#FEFEFF" stop-opacity="0.29"/>
<stop offset="1" stop-color="white" stop-opacity="0.4"/>
</linearGradient>
<linearGradient id="paint1_linear_2_3818" x1="-0.75914" y1="2.35436" x2="39.6328" y2="7.4013" gradientUnits="userSpaceOnUse">
<stop stop-color="white" stop-opacity="0.08"/>
<stop offset="1" stop-color="white" stop-opacity="0.07"/>
</linearGradient>
</defs>
</svg>
