<svg width="36" height="36" viewBox="0 0 36 36" fill="none" xmlns="http://www.w3.org/2000/svg">
<circle cx="18.0158" cy="17.5538" r="17.0538" fill="url(#paint0_linear_2_3815)" fill-opacity="0.05" stroke="url(#paint1_linear_2_3815)"/>
<path d="M27.2551 11.9461C26.5756 12.2392 25.8361 12.4502 25.0744 12.5324C25.8652 12.0626 26.4574 11.3204 26.7399 10.445C25.9978 10.8864 25.1849 11.196 24.3372 11.3599C23.9829 10.9811 23.5544 10.6794 23.0783 10.4734C22.6023 10.2675 22.089 10.1618 21.5703 10.163C19.4718 10.163 17.7842 11.864 17.7842 13.9513C17.7842 14.2445 17.8197 14.5376 17.8774 14.8196C14.7353 14.6553 11.9328 13.1541 10.0697 10.8558C9.73027 11.4356 9.55237 12.0959 9.55456 12.7678C9.55456 14.0824 10.223 15.2415 11.2422 15.9232C10.6416 15.8996 10.055 15.7345 9.53013 15.4414V15.488C9.53013 17.3289 10.8314 18.8545 12.5657 19.2053C12.2401 19.2899 11.9051 19.3332 11.5687 19.3341C11.3222 19.3341 11.089 19.3097 10.8536 19.2764C11.3333 20.7775 12.73 21.8678 14.3933 21.9034C13.092 22.9226 11.4621 23.5222 9.69224 23.5222C9.37469 23.5222 9.08157 23.5111 8.77734 23.4756C10.4561 24.5526 12.448 25.1743 14.5931 25.1743C21.557 25.1743 25.3676 19.4052 25.3676 14.3977C25.3676 14.2334 25.3676 14.069 25.3565 13.9047C26.0937 13.3651 26.7399 12.6967 27.2551 11.9461Z" fill="white"/>
<defs>
<linearGradient id="paint0_linear_2_3815" x1="18.0158" y1="0" x2="18.0158" y2="35.1077" gradientUnits="userSpaceOnUse">
<stop stop-color="#FEFEFF" stop-opacity="0.29"/>
<stop offset="1" stop-color="white" stop-opacity="0.4"/>
</linearGradient>
<linearGradient id="paint1_linear_2_3815" x1="-1.22203" y1="2.35436" x2="39.1699" y2="7.4013" gradientUnits="userSpaceOnUse">
<stop stop-color="white" stop-opacity="0.08"/>
<stop offset="1" stop-color="white" stop-opacity="0.07"/>
</linearGradient>
</defs>
</svg>
