<svg width="75" height="75" viewBox="0 0 122 122" fill="none" xmlns="http://www.w3.org/2000/svg">
<rect opacity="0.1" x="0.0556641" y="0.504639" width="121.101" height="121.101" rx="35" fill="black"/>
<path d="M83.421 72.6269C81.1779 72.6363 78.9634 73.1302 76.9297 74.0747C74.9211 75.0056 73.1451 76.3706 71.7303 78.0709L49.7647 64.9037C50.5651 62.4326 50.5651 59.7726 49.7647 57.3015L71.733 44.1397C74.0022 46.809 77.1296 48.6095 80.5812 49.2338C84.0586 49.8778 87.6521 49.3206 90.7698 47.6542C93.8322 46.0271 96.2145 43.3657 97.4903 40.1462C98.7351 36.9709 98.7639 33.4492 97.5712 30.254C96.3496 27.0143 94.0109 24.3152 90.9748 22.641C87.8835 20.9274 84.2993 20.3161 80.8132 20.908C77.3505 21.4804 74.1939 23.2331 71.8813 25.8676C69.6222 28.4442 68.3833 31.755 68.397 35.1786C68.4107 36.4711 68.6133 37.7548 68.9984 38.9891L47.0301 52.1428C45.0601 49.784 42.4138 48.0833 39.4467 47.2694C36.4484 46.4379 33.2695 46.5195 30.318 47.5035C27.4019 48.468 24.8533 50.3036 23.0177 52.7617C21.2139 55.1706 20.2393 58.0969 20.2393 61.1039C20.2393 64.111 21.2139 67.0373 23.0177 69.4461C24.8533 71.9043 27.4019 73.7399 30.318 74.7044C33.2695 75.6884 36.4484 75.77 39.4467 74.9385C42.4148 74.1251 45.0621 72.4244 47.0328 70.0651L69.0011 83.2269C68.6168 84.4586 68.4142 85.7395 68.3997 87.0293C68.4039 89.8918 69.2877 92.6842 70.932 95.0298C72.6096 97.4191 74.9542 99.2636 77.6741 100.334C80.4321 101.421 83.4433 101.701 86.3551 101.141C89.2475 100.598 91.9199 99.2291 94.0491 97.2014C96.1354 95.215 97.5694 92.6442 98.1618 89.828C98.7415 87.0327 98.443 84.1271 97.3069 81.5073C96.1483 78.8524 94.2213 76.6034 91.773 75.0489C89.2761 73.4596 86.3745 72.619 83.4129 72.6269H83.421ZM83.421 26.5457C85.1954 26.5434 86.9334 27.0486 88.429 28.0016C89.8979 28.9354 91.0539 30.2857 91.7487 31.8794C92.4301 33.4511 92.609 35.1943 92.2611 36.8712C91.9058 38.5609 91.0454 40.1034 89.7935 41.2953C88.5161 42.5125 86.9124 43.3341 85.1766 43.6607C83.4291 43.9937 81.6227 43.8228 79.9691 43.1682C78.337 42.5257 76.9303 41.4187 75.9238 39.9847C74.7664 38.3351 74.2429 36.3248 74.4489 34.3216C74.6549 32.3183 75.5767 30.456 77.0457 29.0753C78.7648 27.444 81.0486 26.5378 83.421 26.5457ZM35.3421 69.7422C33.5677 69.7445 31.8297 69.2393 30.3341 68.2863C28.8652 67.3525 27.7092 66.0022 27.0144 64.4085C26.333 62.8368 26.1541 61.0936 26.502 59.4167C26.8573 57.727 27.7177 56.1844 28.9696 54.9926C30.247 53.7754 31.8507 52.9538 33.5865 52.6272C35.334 52.2942 37.1404 52.465 38.7941 53.1197C40.4261 53.7621 41.8328 54.8692 42.8393 56.3031C43.9967 57.9528 44.5203 59.9631 44.3143 61.9663C44.1082 63.9696 43.1864 65.8319 41.7174 67.2126C39.9983 68.8439 37.7145 69.7501 35.3421 69.7422ZM83.421 95.6622C81.6465 95.6645 79.9085 95.1593 78.413 94.2063C76.944 93.2725 75.788 91.9222 75.0932 90.3285C74.4118 88.7568 74.2329 87.0136 74.5808 85.3367C74.9362 83.647 75.7966 82.1045 77.0484 80.9126C78.3259 79.6954 79.9296 78.8738 81.6653 78.5472C83.4128 78.2142 85.2192 78.3851 86.8729 79.0397C88.5049 79.6822 89.9116 80.7892 90.9181 82.2232C92.0755 83.8728 92.5991 85.8831 92.3931 87.8863C92.1871 89.8896 91.2653 91.7519 89.7962 93.1326C88.0771 94.7639 85.7933 95.6701 83.421 95.6622Z" fill="#C9C9C9"/>
</svg>
