<svg width="745" height="329" viewBox="0 0 745 329" fill="none" xmlns="http://www.w3.org/2000/svg">
<path d="M0.366211 20.0183C0.366211 8.9726 9.32052 0.0183105 20.3662 0.0183105H724.632C735.678 0.0183105 744.632 8.97262 744.632 20.0183V308.555C744.632 319.601 735.678 328.555 724.632 328.555H20.3662C9.32051 328.555 0.366211 319.601 0.366211 308.555V20.0183Z" fill="#EEEEEE"/>
<mask id="mask0_2_8060" style="mask-type:alpha" maskUnits="userSpaceOnUse" x="0" y="0" width="745" height="329">
<rect x="0.366211" y="0.0183105" width="744.266" height="328.537" rx="20" fill="#DCDCDC"/>
</mask>
<g mask="url(#mask0_2_8060)">
<path opacity="0.2" fill-rule="evenodd" clip-rule="evenodd" d="M593.118 56.6564C601.402 56.6564 608.118 49.9406 608.118 41.6564C608.118 33.3721 601.402 26.6564 593.118 26.6564C584.834 26.6564 578.118 33.3721 578.118 41.6564C578.118 49.9406 584.834 56.6564 593.118 56.6564Z" fill="#8A8A8A"/>
<path opacity="0.2" fill-rule="evenodd" clip-rule="evenodd" d="M317.684 406.938C352.201 406.938 380.184 378.956 380.184 344.438C380.184 309.92 352.201 281.938 317.684 281.938C283.166 281.938 255.184 309.92 255.184 344.438C255.184 378.956 283.166 406.938 317.684 406.938Z" fill="#8A8A8A"/>
<path opacity="0.1" fill-rule="evenodd" clip-rule="evenodd" d="M707 349C747.317 349 780 316.317 780 276C780 235.683 747.317 203 707 203C666.683 203 634 235.683 634 276C634 316.317 666.683 349 707 349Z" fill="#8A8A8A"/>
<path opacity="0.3" fill-rule="evenodd" clip-rule="evenodd" d="M714.165 412.386C783.201 412.386 839.165 356.421 839.165 287.386C839.165 218.35 783.201 162.386 714.165 162.386C645.129 162.386 589.165 218.35 589.165 287.386C589.165 356.421 645.129 412.386 714.165 412.386Z" stroke="#B1B1B1"/>
</g>
</svg>
