<svg width="50" height="50" viewBox="0 0 60 60" fill="none" xmlns="http://www.w3.org/2000/svg">
<rect opacity="0.05" width="60" height="60" rx="10" fill="black"/>
<path d="M41.3032 35.7333C40.1918 35.738 39.0946 35.9827 38.0871 36.4506C37.0919 36.9119 36.2119 37.5882 35.511 38.4306L24.628 31.9068C25.0246 30.6825 25.0246 29.3646 24.628 28.1403L35.5123 21.6192C36.6366 22.9417 38.1861 23.8338 39.8962 24.1431C41.6191 24.4621 43.3995 24.1861 44.9442 23.3605C46.4615 22.5543 47.6418 21.2357 48.2739 19.6406C48.8906 18.0674 48.9049 16.3225 48.314 14.7394C47.7087 13.1343 46.55 11.797 45.0457 10.9676C43.5142 10.1186 41.7384 9.8157 40.0111 10.109C38.2956 10.3925 36.7316 11.2609 35.5858 12.5662C34.4665 13.8428 33.8527 15.4832 33.8595 17.1794C33.8663 17.8198 33.9667 18.4558 34.1575 19.0673L23.2732 25.5844C22.2971 24.4157 20.986 23.5731 19.5159 23.1698C18.0304 22.7579 16.4554 22.7983 14.9931 23.2858C13.5483 23.7637 12.2856 24.6732 11.3761 25.891C10.4824 27.0845 9.99951 28.5344 9.99951 30.0242C9.99951 31.514 10.4824 32.9639 11.3761 34.1574C12.2856 35.3753 13.5483 36.2848 14.9931 36.7626C16.4554 37.2502 18.0304 37.2906 19.5159 36.8786C20.9865 36.4756 22.2981 35.633 23.2745 34.464L34.1588 40.9851C33.9684 41.5954 33.868 42.23 33.8608 42.8691C33.8629 44.2873 34.3008 45.6708 35.1155 46.8329C35.9467 48.0167 37.1083 48.9306 38.4558 49.4608C39.8223 49.9993 41.3143 50.1381 42.7569 49.8608C44.1899 49.5915 45.514 48.9135 46.5689 47.9089C47.6026 46.9247 48.3131 45.651 48.6066 44.2557C48.8938 42.8708 48.7459 41.4311 48.183 40.1332C47.609 38.8178 46.6543 37.7035 45.4412 36.9333C44.2041 36.1459 42.7665 35.7294 41.2992 35.7333H41.3032ZM41.3032 12.9022C42.1824 12.901 43.0434 13.1513 43.7844 13.6235C44.5122 14.0861 45.085 14.7551 45.4292 15.5448C45.7668 16.3235 45.8554 17.1871 45.6831 18.018C45.507 18.8552 45.0807 19.6194 44.4605 20.2099C43.8276 20.813 43.033 21.2201 42.173 21.3819C41.3072 21.5468 40.4122 21.4622 39.5929 21.1379C38.7843 20.8195 38.0874 20.2711 37.5887 19.5606C37.0152 18.7433 36.7558 17.7473 36.8579 16.7548C36.96 15.7622 37.4167 14.8396 38.1445 14.1555C38.9963 13.3472 40.1278 12.8983 41.3032 12.9022ZM17.4823 34.3041C16.6031 34.3052 15.7421 34.0549 15.0011 33.5827C14.2733 33.1201 13.7005 32.4511 13.3563 31.6615C13.0187 30.8828 12.93 30.0191 13.1024 29.1882C13.2785 28.3511 13.7047 27.5868 14.325 26.9963C14.9579 26.3932 15.7525 25.9862 16.6125 25.8244C17.4783 25.6594 18.3732 25.744 19.1926 26.0684C20.0012 26.3867 20.6981 26.9352 21.1968 27.6456C21.7702 28.463 22.0296 29.459 21.9276 30.4515C21.8255 31.444 21.3688 32.3667 20.641 33.0508C19.7892 33.859 18.6577 34.308 17.4823 34.3041ZM41.3032 47.1462C40.424 47.1474 39.5629 46.8971 38.8219 46.4249C38.0941 45.9623 37.5214 45.2933 37.1772 44.5037C36.8396 43.7249 36.7509 42.8613 36.9233 42.0304C37.0994 41.1933 37.5256 40.429 38.1459 39.8385C38.7788 39.2354 39.5734 38.8284 40.4333 38.6666C41.2991 38.5016 42.1941 38.5862 43.0135 38.9105C43.822 39.2289 44.519 39.7774 45.0177 40.4878C45.5911 41.3052 45.8505 42.3012 45.7485 43.2937C45.6464 44.2862 45.1897 45.2089 44.4618 45.893C43.6101 46.7012 42.4786 47.1502 41.3032 47.1462Z" fill="#C5C4C4"/>
</svg>
